<svg width="742" height="615" viewBox="0 0 742 615" fill="none" xmlns="http://www.w3.org/2000/svg">
<path d="M279.199 385.791C265.766 403.812 257.361 426.19 258.683 448.664C259.231 457.973 261.021 467.087 264.052 476.006C263.872 475.978 263.749 475.866 263.683 475.67C263.63 475.531 263.529 475.416 263.397 475.347C263.266 475.278 263.114 475.259 262.969 475.293C262.825 475.328 262.698 475.415 262.613 475.536C262.528 475.658 262.49 475.807 262.506 475.954C262.598 476.578 262.813 477.266 263.152 478.017C273.731 501.375 291.164 516.606 315.45 523.709C317.271 524.246 319.149 525.264 321.196 525.72C331.789 528.12 341.27 527.961 352.437 526.014C366.946 523.483 379.074 518.515 390.987 508.728C394.116 506.15 396.73 502.923 399.619 499.872C401.775 497.589 403.489 495.308 404.762 493.027C410.209 483.255 414.025 474.24 416.585 462.735C418.586 453.744 420.547 444.743 422.467 435.733C424.678 425.361 428.685 414.006 434.49 401.67C442.834 383.919 453.476 367.689 466.416 352.978C477.726 340.119 491.901 327.839 508.94 316.137C513.261 313.178 518.226 311.268 522.906 308.719C528.024 305.926 533.306 303.476 538.753 301.367C544.399 299.178 547.964 295.227 549.45 289.515C549.525 289.217 549.519 288.9 549.432 288.598C548.911 286.771 549.255 285.002 548.407 283.459C547.26 281.343 545.16 279.96 543.949 278.762C535.468 270.371 525.511 267.801 514.076 271.051C500.07 275.039 486.768 282.254 474.168 292.698C464.951 300.337 456.066 308.35 447.511 316.736C447.007 317.223 446.297 318.076 445.381 319.295C444.169 320.914 442.397 321.834 441.088 323.634C440.467 324.483 439.84 325.159 439.208 325.659C436.655 327.696 434.583 330.153 432.994 333.029C432.514 333.903 430.62 335.145 429.815 336.313C426.544 341.055 423.219 345.759 419.838 350.426C417.439 353.733 415.316 357.208 413.469 360.85C413.333 361.114 413.123 361.298 412.84 361.402C412.612 361.477 412.471 361.607 412.418 361.794C411.962 363.338 411.07 364.957 409.744 366.652C407.923 368.976 406.297 371.858 404.866 375.299C404.331 376.574 403.764 377.641 403.166 378.498C402.213 379.864 401.606 380.869 401.344 381.512C399.751 385.487 398.112 389.439 396.425 393.369C394.648 397.504 393.171 401.509 391.994 405.386C390.417 410.577 388.845 415.771 387.276 420.968C386.901 422.197 387.329 423.366 386.809 424.52C386.181 425.882 385.851 426.647 385.82 426.814C385.342 429.126 385.22 431.571 384.704 433.739C382.158 444.38 380.261 453.191 379.012 460.173C378.296 464.174 376.953 467.699 374.981 470.746C374.953 470.795 374.285 472.013 372.978 474.399C372.302 475.636 371.307 476.869 369.994 478.097C364.851 482.885 359.542 486.268 354.067 488.245C336.833 494.478 322.039 492.11 309.686 481.14C298.083 470.832 292.508 455.978 294.34 440.559C295.92 427.215 302.69 414.924 311.68 405.01C316.653 399.536 321.191 395.339 325.295 392.417C334.403 385.945 340.475 381.893 343.508 380.258C355.326 373.903 368.346 367.164 378.498 360.158C393.245 349.974 405.574 338.264 414.301 322.343C415.504 320.147 416.514 317.464 417.739 315.044C418.786 312.976 419.528 311.121 419.964 309.478C421.93 302.029 423.258 294.468 423.949 286.794C424.263 283.252 423.983 279.31 423.986 275.572C423.985 272.322 423.774 269.528 423.355 267.19C422.799 264.137 422.135 261.105 421.363 258.096C416.2 238.001 410.832 217.957 405.261 197.964C403.177 190.496 401.413 184.067 399.969 178.677C383.48 117.189 366.981 55.7045 350.472 -5.77771C349.207 -10.5011 348.404 -15.1207 349.593 -19.2595C352.528 -29.4774 360.401 -34.7136 370.608 -37.6142C374.849 -38.8127 379.176 -39.6406 383.588 -40.0981C395.818 -41.3598 408.07 -41.8578 420.344 -41.5921C428.038 -41.428 436.614 -40.5268 444.787 -39.8905C451.829 -39.3411 457.909 -38.6203 463.028 -37.728C475.651 -35.5405 488.13 -32.7175 500.466 -29.259C516.384 -24.7934 531.549 -18.5388 545.962 -10.4951C549.67 -8.4309 552.685 -5.70177 555.01 -2.30769C557.079 0.699342 558.059 5.20918 559.519 8.959C559.605 9.17924 559.742 9.37563 559.92 9.53154C560.097 9.68744 560.31 9.79827 560.539 9.85462C560.769 9.91098 561.008 9.91122 561.238 9.85529C561.467 9.79937 561.68 9.68895 561.858 9.53337C564.098 7.57697 567.061 6.81398 570.148 6.1629C586.284 2.75017 597.138 20.6924 584.293 32.3335C583.187 33.3442 582.512 34.5709 581.15 35.2463C576.007 37.8183 571.44 41.161 567.449 45.2742C567.212 45.5239 567.145 45.8145 567.248 46.146C567.338 46.4323 567.492 46.5566 567.71 46.519C562.516 53.1008 557.706 60.0319 553.28 67.3123C529.243 106.833 505.594 146.579 482.333 186.548C482.538 186.437 482.5 186.296 482.219 186.123C481.995 185.982 481.812 186.021 481.67 186.239C479.673 189.217 476.746 195.871 472.271 192.039C472.018 191.817 471.849 191.545 471.763 191.223C458.837 142.598 445.763 94.0095 432.539 45.4576C431.172 40.4335 429.734 35.4009 428.225 30.3598C427.126 26.6718 426.791 24.0044 427.219 22.3574C428.056 19.1446 430.773 17.4882 435.371 17.3882C455.122 16.9412 474.382 20.4352 493.153 27.8704C495.494 27.6709 498.048 28.7397 500.814 31.0768C501.063 31.2861 501.092 31.5233 500.901 31.7885C499.588 33.6517 497.89 35.1939 496.793 37.0511C492.884 43.6889 488.932 50.4074 484.936 57.2068C482.526 55.2986 479.365 52.1152 475.451 47.6563C471.358 43.0071 463.201 40.6167 457.636 43.4538C454.246 45.1765 453.178 48.3754 454.43 53.0505C458.131 66.8632 460.834 77.4649 462.538 84.8557C463.418 88.6783 465.141 92.3679 466.16 95.9772C467.89 102.098 470.575 112.052 474.214 125.84C474.973 128.712 476.271 129.461 479.091 128.82C486.314 127.16 491.692 123.379 495.225 117.477C498.168 112.568 499.971 109.393 500.634 107.953C505.729 96.9594 510.983 86.0443 516.396 75.2074C519.109 69.7735 522.125 64.5067 525.445 59.407C527.903 55.622 531.894 51.1223 537.42 45.9079C543.539 40.1272 546.175 32.978 545.328 24.4602C545.116 22.3292 544.387 20.2157 543.142 18.1199C540.602 13.8659 538.139 10.6916 535.756 8.59708C533.074 6.23752 528.553 3.46664 522.192 0.284391C509.266 -6.17692 495.891 -11.3653 482.067 -15.2807C475.195 -17.2285 468.678 -18.5986 462.517 -19.3908C443.293 -21.8594 419.111 -21.8504 402.711 -10.6128C399.406 -8.34014 395.106 -3.56436 393.402 -0.612727C390.072 5.11782 388.367 11.3652 388.288 18.1294C388.241 22.0485 389.314 28.2661 391.506 36.7822C403.549 83.5072 417.061 129.839 428.996 176.583C435.365 201.538 442.073 226.402 449.118 251.176C450.583 256.333 452.075 261.503 453.595 266.686C455.437 272.943 460.026 274.808 466.164 272.677C476.271 269.172 486.462 260.416 487.331 249.054C487.886 241.855 482.015 233.966 488.699 228.002C491.032 225.928 493.767 226.054 496.275 227.608C501.604 230.922 506.864 234.44 512.323 237.543C516.594 239.96 521.651 243.647 524.717 245.507C536.638 252.727 548.618 259.853 560.654 266.884C566.929 270.545 572.267 273.145 576.669 274.685C586.797 278.224 597.265 280.074 608.075 280.235C608.74 280.244 612.914 279.991 620.596 279.479C628.686 278.94 635.997 279.735 642.531 281.863C656.313 286.342 668.92 294.473 680.353 306.255C686.168 312.247 690.514 317.66 693.39 322.494C695.916 326.745 698.452 332.422 700.997 339.526C701.893 342.019 702.876 343.857 703.945 345.041C709.588 351.262 718.057 351.653 723.696 345.111C728.02 340.112 730.236 333.43 728.802 326.806C728.778 326.694 728.786 326.577 728.826 326.469C728.865 326.362 728.935 326.268 729.027 326.199C729.118 326.129 729.228 326.088 729.342 326.079C729.456 326.07 729.571 326.094 729.672 326.148C734.27 328.574 737.367 332.082 738.962 336.672C747.341 360.754 733.863 386.842 706.224 386.504C705.046 386.488 704.204 386.627 703.696 386.922C702.631 387.532 702.434 388.534 703.104 389.928C707.07 398.162 709.178 406.352 709.429 414.498C709.703 423.197 708.423 431.646 705.588 439.846C700.627 454.199 692.934 466.892 682.508 477.927C670.66 490.454 656.862 500.238 641.115 507.28C638.563 508.42 636.043 509.64 633.555 510.942C630.749 512.398 628.184 513.485 625.857 514.205C613.012 518.144 599.92 520.955 586.582 522.638C583.207 523.066 579.918 522.653 576.442 524.63C576.274 524.725 576.141 524.873 576.065 525.05C575.99 525.228 575.974 525.425 576.022 525.613C576.343 526.838 577.067 528.135 578.192 529.503C582.171 534.331 586.717 540.491 591.83 547.983C596.175 554.346 601.712 560.368 606.382 566.901C609.837 571.732 612.843 575.713 615.401 578.844C619.141 583.426 622.739 588.083 626.195 592.817C626.261 592.906 626.304 593.01 626.32 593.12C626.337 593.23 626.327 593.342 626.291 593.447C626.256 593.553 626.195 593.647 626.115 593.724C626.034 593.801 625.936 593.857 625.83 593.888C613.104 597.588 597.948 600.799 587.507 603.597C574.847 606.989 562.267 610.54 549.767 614.248C549.51 614.325 549.235 614.324 548.977 614.244C548.72 614.163 548.491 614.008 548.321 613.797C536.812 599.357 525.37 584.871 513.994 570.34C507.833 562.467 501.349 555.887 494.543 550.602C487.781 545.343 479.582 541.401 470.54 537.602C467.016 536.117 463.668 534.995 460.497 534.236C445.149 530.557 429.555 529.131 413.716 529.958C413.377 529.98 413.069 530.08 412.792 530.258C404.384 535.686 394.621 540.413 383.505 544.441C359.043 553.294 334.688 554.423 310.442 547.827C291.802 542.748 275.098 532.916 260.894 520.013C247.55 507.883 238.077 492.387 232.172 475.448C232.068 475.138 231.859 474.938 231.545 474.85C230.228 474.492 229.089 474.583 228.13 475.123C206.576 487.296 182.945 493.96 158.215 494.24C138.697 494.459 121.05 492.003 102.154 485.274C98.2694 483.885 95.3473 482.639 93.3882 481.535C92.1248 480.839 90.6824 480.749 89.3837 480.113C62.212 466.761 41.8524 446.531 25.4576 421.47C10.1908 398.147 2.65029 370.662 -2.03241 343.488C-3.22078 336.58 -3.95464 329.63 -4.23398 322.637C-4.87724 306.173 -4.75748 290.508 -2.06547 273.895C0.143544 260.245 1.84275 250.849 3.03215 245.705C6.23117 231.835 12.5102 215.472 18.3498 200.677C22.456 190.269 28.0385 180.232 33.0837 170.122C39.0283 158.204 47.0552 144.952 57.1643 130.365C59.4977 126.993 62.5175 123.04 66.2237 118.506C68.6306 115.563 71.7667 111.696 75.6319 106.906C81.2128 99.9925 88.0809 92.2166 96.2363 83.5781C100.86 78.6813 105.647 74.0477 110.598 69.6774C120.641 60.7953 130.19 52.9913 139.245 46.2653C153.21 35.8975 168.708 26.2234 185.737 17.2432C186.324 16.9342 188.309 16.009 191.692 14.4675C193.218 13.7756 195.199 12.8237 197.635 11.6119C199.882 10.4923 204.373 8.60233 211.107 5.94206C224.336 0.720148 240.735 1.95791 248.951 14.3848C250.77 17.1276 252.691 22.2103 254.714 29.6329C279.863 121.687 298.943 192.429 311.953 241.86C316.495 259.119 319.445 270.013 320.804 274.543C322.75 281.072 323.368 290.027 314.389 290.942C314.049 290.974 313.706 290.935 313.383 290.828C313.06 290.72 312.764 290.545 312.513 290.316C305.393 283.755 298.105 276.339 291.589 270.258C274.233 254.089 257.444 237.334 240.138 221.12C232.72 214.17 225.418 207.099 218.231 199.907C215.345 197.016 211.419 193.802 207.711 190.355C197.679 181.044 181.855 185.315 174.895 196.197C171.902 200.871 170.329 205.882 170.175 211.231C170.086 214.25 170.967 219.263 172.817 226.27C183.403 266.397 194.785 306.477 205.023 346.501C207.944 357.945 208.769 371.493 203.607 382.328C201.444 386.876 198.552 390.664 194.932 393.691C189.332 398.366 183.742 401.641 178.164 403.515C151.014 412.654 122.719 408.516 99.3591 392.351C78.7702 378.104 65.5086 357.898 59.3246 333.622C49.5261 295.198 56.6429 257.119 71.7346 220.868C72.4249 219.219 73.2795 217.051 74.2983 214.362C75.7337 210.575 78.8248 204.712 83.5718 196.773C84.1679 195.778 84.9723 194.182 85.9849 191.985C86.5841 190.693 87.3923 189.086 88.4095 187.163C96.9273 171.081 105.267 157.231 116.435 143.274C122.064 136.231 127.034 130.337 131.347 125.592C132.781 124.014 133.807 122.732 134.426 121.744C134.595 121.479 134.861 121.286 135.171 121.203C135.73 121.047 136.292 120.647 136.859 120.006C142.521 113.526 149.594 106.965 158.077 100.323C158.29 100.163 158.995 99.5354 160.193 98.4415C160.905 97.8021 161.679 97.2529 162.515 96.7942C164.23 95.8516 165.421 95.1322 166.088 94.6358C167.938 93.2706 170.533 91.571 173.874 89.537C180.293 85.6223 186.378 82.3148 192.128 79.6145C202.664 74.6586 215.424 71.5501 227.322 68.3518C236.351 65.9222 243.117 56.5931 240.403 47.5472C237.23 36.9785 225.765 32.0167 215.116 33.0376C208.979 33.626 202.503 35.0092 195.688 37.1873C188.589 39.4624 181.884 42.0801 175.575 45.0405C162.664 51.0988 148.978 59.1761 136.823 67.8269C133.332 70.3081 129.509 73.3099 125.353 76.8324C119.774 81.5642 116.138 84.8022 114.445 86.5465C110.584 90.5281 107.65 93.4471 105.642 95.3034C104.457 96.3938 103.392 97.5454 102.447 98.758C101.433 100.075 99.291 101.933 98.7329 103.366C98.3361 104.384 98.5981 104.769 99.5189 104.522C97.1703 107.76 95.3116 110.174 93.9427 111.762C81.7903 125.909 71.1354 140.932 61.9782 156.831C60.3608 157.388 59.1258 158.717 58.2733 160.815C57.4568 162.843 56.7686 164.28 56.2088 165.127C53.1867 169.663 50.5253 174.4 48.2247 179.337C45.9271 184.26 44.7627 186.753 44.7314 186.816C42.5196 191.364 40.3642 195.941 38.265 200.548C37.5801 202.036 36.6442 204.416 35.4573 207.688C34.5794 210.104 33.5769 212.467 32.4499 214.778C31.39 216.953 30.5431 219.188 29.9089 221.484C29.2505 223.869 28.4822 226.218 27.6042 228.531C27.5421 228.685 27.5198 228.846 27.5371 229.014C27.5575 229.168 27.5706 229.319 27.5764 229.47C27.5965 229.803 27.52 230.109 27.3468 230.391C26.4121 231.925 26.6242 233.721 26.2542 235.083C24.9561 239.821 23.3445 244.238 22.4968 249.072C21.4917 254.787 19.7393 260.495 19.4512 266.298C19.3354 268.544 19.1317 270.566 18.8401 272.362C17.7254 279.252 17.111 286.039 16.9971 292.723C16.9032 297.911 17.0744 304.577 17.5106 312.722C18.3013 327.521 20.528 342.464 24.1907 357.55C24.9278 360.61 25.7561 363.367 26.6754 365.819C29.0147 372.077 30.6697 377.017 32.5072 382.715C36.6137 395.439 42.6969 407.092 50.7568 417.673C55.0166 423.268 60.5624 429.308 67.3939 435.795C70.9748 439.19 75.0557 442.417 79.6367 445.476C86.689 450.184 91.8899 453.418 95.2395 455.178C109.527 462.703 124.586 467.361 140.416 469.152C146.807 469.875 153.453 469.91 160.352 469.255C173.575 467.99 185.572 465.165 196.345 460.781C201.229 458.789 207.145 455.354 214.092 450.476C215.673 449.37 217.16 448.04 218.552 446.486C219.883 444.991 221.219 443.497 222.559 442.007C224.957 439.342 226.853 437.001 228.245 434.986C236.24 423.443 242.594 408.365 243.993 394.304C244.414 390.056 244.865 385.812 245.343 381.57C246.646 369.999 246.107 358.51 243.728 347.104C241.575 336.804 238.203 323.472 233.611 307.109C228.839 290.098 224.035 273.096 219.199 256.102C218.855 254.896 218.671 253.772 218.647 252.73C218.644 252.625 218.672 252.523 218.727 252.434C218.782 252.346 218.862 252.275 218.958 252.231C219.053 252.187 219.16 252.171 219.265 252.185C219.37 252.2 219.469 252.243 219.55 252.312C231.296 262.485 242.419 272.997 252.919 283.85C255.513 286.523 258.975 289.85 263.307 293.831C267.246 297.455 270.753 300.743 273.828 303.694C282.553 312.068 290.546 319.375 297.808 325.615C306.506 333.078 315.916 330.484 325.147 325.215C335.029 319.572 342.773 312.424 348.378 303.772C351.816 298.468 354.226 292.625 355.608 286.243C358.604 272.427 355.477 259.869 351.692 245.706C337.405 192.331 323.028 138.985 308.561 85.6655C307.446 81.5541 305.754 75.1092 303.484 66.3307C300.627 55.2804 296.897 41.4374 292.294 24.8018C289.872 16.03 286.834 7.4747 280.528 1.17208C273.967 -5.3866 265.816 -9.22118 256.077 -10.3316C254.988 -10.454 254.551 -10.2712 254.764 -9.78318C250.945 -9.48444 248.696 -10.2657 248.018 -12.1269C257.786 -16.4974 268.038 -19.7481 278.772 -21.8789C282.232 -22.5646 285.369 -22.6942 288.182 -22.2676C297.236 -20.8942 307.303 -15.6615 311.381 -7.28142C312.168 -5.65651 313.041 -3.08134 314 0.444053C318.064 15.4571 322.115 30.4735 326.154 45.4934C344.856 115.112 363.612 184.712 382.423 254.295C384.814 263.144 386.187 269.657 386.54 273.835C386.974 278.93 386.867 284.017 386.22 289.098C385.571 294.248 384.18 299.09 382.047 303.623C376.405 315.591 367.722 324.474 355.997 330.273C342.278 337.055 332.22 342.2 325.824 345.708C324.867 346.234 323.261 347.348 321.004 349.05C318.858 350.66 316.281 351.785 314.323 353.169C309.752 356.409 305.177 359.644 300.596 362.873C299.43 363.696 298.013 365.014 296.345 366.828C294.89 368.404 293.248 369.783 291.418 370.964C291.154 371.138 290.942 371.364 290.782 371.642C290.581 371.999 290.226 372.377 289.719 372.775C285.196 376.348 281.689 380.686 279.199 385.791ZM160.307 124.251C130.255 151.384 108.648 183.915 91.5898 220.631C82.5507 240.086 76.7977 260.318 74.3308 281.326C74.2938 280.956 74.1315 280.723 73.8436 280.628C73.7636 280.6 73.6783 280.589 73.5938 280.598C73.5093 280.607 73.4279 280.634 73.3554 280.678C73.2829 280.723 73.2212 280.782 73.1748 280.854C73.1284 280.925 73.0985 281.005 73.0873 281.09C71.3554 294.357 72.3079 307.287 75.9448 319.882C77.8974 326.654 80.3136 332.863 83.1933 338.51C90.6732 353.16 102.074 364.168 117.396 371.533C122.569 374.019 127.187 375.929 131.251 377.263C143.024 381.121 154.883 381.618 166.829 378.755C176.88 376.352 184.322 371.594 189.484 362.964C190.837 360.696 191.477 358.437 191.405 356.185C191.086 346.881 182.139 340.768 173.462 340.339C168.646 340.098 162.366 342.163 157.239 343.506C152.537 344.735 148.885 345.051 144.52 344.026C131.952 341.089 122.997 333.518 116.652 322.164C107.807 306.344 108.466 288.868 112.963 271.844C118.268 251.718 126.069 232.625 136.366 214.565C139.724 208.682 143.141 202.953 146.616 197.376C157.519 179.878 170.427 164.314 185.34 150.683C191.843 144.737 199.155 139.762 207.275 135.757C211.268 133.79 216.695 131.853 223.555 129.945C231.09 127.851 238.62 125.74 246.146 123.613C250.958 122.251 252.594 120.591 254.814 116.435C257.445 111.52 257.89 106.845 256.15 102.411C252.084 92.0297 237.918 88.268 227.686 89.9538C219.654 91.2775 211.527 93.3895 203.305 96.2899C197.107 98.4819 191.085 101.3 185.237 104.744C175.734 110.334 166.781 116.757 158.379 124.012C158.33 124.056 158.294 124.113 158.276 124.176C158.257 124.239 158.257 124.306 158.275 124.369C158.293 124.433 158.329 124.489 158.378 124.533C158.427 124.577 158.487 124.607 158.552 124.618C158.92 124.678 159.505 124.556 160.307 124.251ZM261.069 158.054C258.231 154.597 255.306 152.234 252.294 150.963C247.522 148.943 242.815 148.569 238.173 149.84C226.213 153.117 220.262 165.913 224.274 177.448C225.422 180.75 227.095 183.546 229.296 185.834C234.589 191.345 242.907 199.204 254.248 209.409C260.876 215.367 270.762 216.755 274.886 206.954C275.884 204.575 276.086 202.302 275.491 200.135C272.819 190.471 270.235 180.786 267.738 171.082C266.916 167.913 266.107 165.601 265.309 164.144C264.27 162.248 262.856 160.218 261.069 158.054ZM143.753 257.009L145.281 258.733C145.53 259.018 145.815 259.066 146.137 258.876C148.417 257.571 151.005 257.571 152.89 256.104C157.276 252.692 158.773 246.224 155.858 241.757C151.826 235.559 144.27 234.561 138.957 240.115C137.469 241.673 136.975 243.151 136.091 245.107C133.512 250.819 138.036 255.725 143.496 256.861C143.595 256.881 143.685 256.933 143.753 257.009ZM156.45 316.453C162.249 314.614 167.025 310.372 169.727 304.661C172.428 298.95 172.835 292.238 170.856 286.002C169.877 282.914 168.341 280.035 166.337 277.531C164.333 275.027 161.901 272.945 159.177 271.406C156.454 269.866 153.494 268.899 150.466 268.558C147.439 268.218 144.402 268.512 141.531 269.423C135.732 271.263 130.956 275.504 128.254 281.215C125.552 286.926 125.146 293.638 127.124 299.874C128.104 302.963 129.639 305.841 131.643 308.345C133.647 310.85 136.08 312.931 138.803 314.471C141.526 316.01 144.486 316.978 147.514 317.318C150.542 317.658 153.578 317.364 156.45 316.453ZM284.522 335.531C279.338 330.75 269.21 329.809 266.34 337.453C264.632 341.975 265.272 346.656 268.26 351.494C270.913 355.794 277.64 359.727 282.478 356.339C290.018 351.058 291.364 341.825 284.522 335.531ZM462.235 389.111C455.079 401.554 449.47 413.696 445.41 425.537C441.298 437.523 438.212 450.898 436.149 465.661C434.667 476.318 431.581 486.556 429.436 497.059C429.369 497.385 429.376 497.722 429.456 498.045C429.536 498.369 429.688 498.67 429.9 498.927C430.112 499.184 430.379 499.39 430.681 499.531C430.983 499.671 431.312 499.742 431.645 499.738C453.229 499.462 466.297 482.741 472.646 464.092C475.081 456.952 477.479 449.801 479.839 442.639C482.697 433.985 484.981 427.724 486.691 423.856C498.331 397.557 518.28 377.542 543.715 363.469C548.246 360.958 552.954 358.847 557.838 357.138C569.532 353.052 581.379 349.46 593.38 346.362C604.483 343.497 614.797 342.076 624.32 342.099C638.058 342.134 649.089 345.67 663.209 350.034C665.783 350.828 668.366 350.63 670.959 349.438C676.794 346.756 679.147 340.277 677.74 334.214C677.116 331.524 675.546 328.666 673.031 325.641C665.199 316.196 654.482 311.241 642.97 307.42C641.933 307.077 640.532 306.793 638.767 306.569C637.329 306.381 635.919 306.09 634.536 305.694C633.061 305.261 631.58 305.068 630.095 305.114C628.424 305.162 626.766 305.081 625.123 304.873C623.107 304.612 621.456 304.516 620.17 304.585C614.167 304.902 608.171 305.305 602.179 305.792C600.517 305.927 598.754 306.158 596.888 306.485C592.438 307.264 588.019 307.888 583.744 308.972C575.515 311.053 567.285 313.127 559.053 315.194C555.58 316.063 552.013 317.474 548.441 318.555C535.484 322.514 522.836 329.402 511.607 336.873C506.053 340.563 500.809 344.663 495.875 349.174C490.82 353.8 485.253 359.347 479.173 365.814C473.072 372.307 467.426 380.073 462.235 389.111ZM362.939 412.339C364.376 412.6 365.853 412.561 367.286 412.223C368.718 411.885 370.078 411.256 371.289 410.371C372.499 409.486 373.536 408.362 374.34 407.064C375.144 405.766 375.699 404.319 375.974 402.806C376.529 399.751 375.909 396.611 374.25 394.077C372.591 391.544 370.029 389.824 367.127 389.297C365.69 389.036 364.213 389.075 362.781 389.413C361.348 389.751 359.988 390.38 358.777 391.265C357.567 392.151 356.53 393.274 355.726 394.572C354.923 395.87 354.367 397.317 354.092 398.83C353.537 401.885 354.157 405.025 355.816 407.559C357.475 410.092 360.038 411.812 362.939 412.339ZM317.859 428.418C313.671 432.853 311.575 437.818 311.57 443.313C311.569 448.331 312.51 452.565 314.394 456.015C317.514 461.708 321.94 465.761 327.673 468.173C332.549 470.22 337.35 470.739 342.076 469.728C347.414 468.58 351.631 465.604 354.726 460.799C358.152 455.478 359.639 449.665 359.185 443.361C358.264 430.419 348.067 420.955 335.175 420.403C331.655 420.249 328.504 420.893 325.723 422.336C322.937 423.786 320.315 425.814 317.859 428.418ZM637.67 365.377C615.474 364.45 591.894 369.526 570.831 375.532C567.382 376.518 563.578 377.827 559.419 379.46C555.672 380.933 551.927 382.409 548.182 383.889C543.75 385.635 537.87 389.116 530.543 394.33C524.874 398.361 520.016 403.155 515.969 408.712C514.545 410.66 513.005 413.247 511.35 416.472C507.806 423.374 503.645 431.26 507.065 438.615C509.68 444.24 515.862 447.45 521.871 444.918C527.893 442.393 533.874 436.432 539.236 431.331C542.211 428.498 547.585 425.177 555.357 421.369C556.64 420.746 557.74 419.674 559 419.202C573.6 413.723 588.501 409.344 603.703 406.064C612.74 404.113 619.297 402.932 623.377 402.522C637.461 401.095 651.106 403.364 664.314 409.329C669.934 411.86 673.752 413.477 675.769 414.179C680.867 415.946 685.027 414.521 688.248 409.904C697.85 396.129 681.05 380.142 669.804 373.952C660.339 368.738 649.628 365.879 637.67 365.377ZM661.905 434.997C654.585 428.427 646.416 426.724 636.944 425.141C628.058 423.661 620.065 424.239 611.524 426.134C596.331 429.512 580.814 433.421 566.467 439.532C558.981 442.711 554.57 444.625 553.232 445.273C544.276 449.599 525.27 462.974 531.146 475.593C532.525 478.55 534.459 481.051 536.946 483.097C537.194 483.3 537.48 483.413 537.803 483.437C538.341 483.486 538.839 483.684 539.298 484.03C549.13 491.438 563.277 494.625 575.273 495.811C579.894 496.264 585.039 496.238 590.709 495.733C603.534 494.605 614.252 491.526 626.862 486.967C633.524 484.554 638.992 481.971 643.265 479.218C652.933 472.993 661.845 465.76 666.317 454.748C669.454 447.033 667.983 440.449 661.905 434.997ZM582.505 573.03C576.982 566.097 571.682 558.99 566.605 551.709C564.181 548.228 561.058 545.379 558.601 541.813C550.224 529.661 543.511 520.913 538.463 515.571C527.113 503.58 502.235 481.828 484.567 495.289C480.915 498.069 476.693 502.248 471.9 507.825C471.337 508.48 471.04 509.073 471.011 509.606C470.97 510.535 471.5 511.124 472.602 511.374C478.774 512.771 484.789 514.817 490.646 517.513C496.44 520.178 501.776 523.542 506.653 527.604C512.136 532.174 517.579 537.676 522.982 544.111C534.349 557.657 545.26 571.501 555.717 585.643C555.96 585.969 556.294 586.215 556.677 586.349C557.06 586.482 557.473 586.498 557.864 586.393L583.918 579.464C584.211 579.385 584.48 579.238 584.703 579.034C584.926 578.83 585.096 578.576 585.199 578.292C585.999 576.101 583.769 574.617 582.505 573.03Z" fill="#2f4a5c"/>
</svg> 