<svg width="234" height="280" viewBox="0 0 234 280"  xmlns="http://www.w3.org/2000/svg">
  <path d="M92.8847 24.2862C94.2239 22.1363 96.0618 20.0703 97.0719 17.9672C99.5791 12.7194 100.025 7.22341 98.41 1.47903C98.3801 1.36806 98.3784 1.25122 98.405 1.13947C98.4317 1.02772 98.4859 0.924727 98.5625 0.840077C98.6391 0.755427 98.7356 0.691886 98.8431 0.655442C98.9505 0.618998 99.0654 0.610833 99.1769 0.63169C102.613 1.27088 105.972 2.1895 109.253 3.38757C123.124 8.43984 131.884 18.723 133.902 33.8666C134.046 34.9461 133.869 35.9323 133.37 36.8252C133.2 37.1192 132.947 37.2973 132.612 37.3595C118.16 39.886 105.409 45.9254 94.3578 55.4778C92.5664 57.0345 88.4215 61.2061 81.9232 67.9925C80.271 69.7086 79.84 71.1907 78.8643 72.4563C77.3612 74.3809 75.748 75.8174 74.4698 77.8474C69.6705 85.4623 64.9121 93.1008 60.1944 100.763C59.2191 102.339 58.9318 104.435 57.3793 106.021C57.1567 106.246 57.0076 106.514 56.9319 106.824C56.5888 108.248 56.2202 109.165 55.826 109.574C54.6088 110.852 53.3947 112.8 52.1838 115.416C51.2025 117.549 49.1419 120.934 46.0018 125.572C44.7822 127.382 43.6764 129.373 42.6844 131.544C39.0301 139.542 33.4062 150.004 36.164 158.79C38.7583 167.081 47.3944 171.299 55.7285 169.097C58.9066 168.259 61.8253 166.66 64.4845 164.297C66.1816 162.801 68.1962 160.235 70.5285 156.601C76.4818 147.317 82.3299 137.975 88.0727 128.575C97.2023 113.63 104.127 102.909 108.846 96.4127C113.602 89.8723 119.838 84.3742 127.555 79.9186C129.248 78.9473 131.616 78.0124 134.661 77.1138C137.314 76.3269 139.716 75.4108 141.865 74.3656C150.801 70.0317 154.389 62.9311 152.629 53.0639C152.554 52.656 152.724 52.4413 153.139 52.4198C159.644 52.0848 165.328 57.9952 169.381 62.303C171.875 64.9406 173.896 67.9121 175.444 71.2173C177.639 75.9024 179.104 80.6653 179.842 85.5059C180.381 89.0335 180.031 92.5575 178.793 96.0778C178.171 97.8525 177.177 99.1783 175.811 100.055C174.467 100.912 172.98 101.521 171.351 101.882C171.201 101.915 171.046 101.916 170.897 101.885C170.747 101.854 170.607 101.79 170.485 101.7C158.362 92.9802 145.854 92.2527 132.961 99.517C127.199 102.766 123.339 107.613 121.381 114.06C120.281 117.681 120.279 120.819 121.377 123.472C124.147 130.142 130.985 130.815 138.137 130.928C141.575 130.98 144.482 131.243 146.859 131.717C152.81 132.908 157.981 134.048 163.497 137.053C167.843 139.415 172.17 141.807 176.476 144.228C182.75 147.744 186.94 149.355 193.04 145.463C199.537 141.31 199.557 131.418 197.716 124.933C197.615 124.581 197.737 124.469 198.082 124.597C202.773 126.342 209.903 138.346 212.269 142.733C215.396 148.531 216.974 155.656 218.909 162.26C220.623 168.116 221.396 174.09 221.226 180.181C221.095 184.947 217.381 196.896 211.153 195.904C210.828 195.853 210.574 195.69 210.39 195.415C203.472 185.259 195.681 177.47 187.016 172.048C183.077 169.584 179.139 167.122 175.202 164.664C172.252 162.825 169.163 161.303 165.934 160.097C162.636 158.862 159.328 157.633 156.012 156.41C146.263 152.817 136.195 151.201 125.808 151.562C116.513 151.878 106.734 153.722 96.4699 157.094C95.5242 157.402 94.508 157.937 93.4211 158.697C92.1313 159.602 90.6107 160.341 89.458 161.178C83.7519 165.357 80.3986 170.679 79.398 177.145C78.5996 182.318 81.9169 187.01 86.4445 189.534C91.0038 192.074 95.9078 192.796 101.156 191.7C102.619 191.391 103.944 191.232 105.129 191.225C106.832 191.218 108.135 191.11 109.039 190.903C120.87 188.229 131.605 189.618 143.686 192.862C149.71 194.478 154.881 196.519 159.2 198.985C161.997 200.589 166.472 203.614 172.626 208.06C182.509 215.195 190.657 222.691 198.645 231.37C202.574 235.638 208.078 240.955 214.186 239.991C222.838 238.625 223.372 232.043 224.559 224.84C224.82 223.266 225.298 223.196 225.993 224.632C231.092 235.161 235.006 250.966 232.024 262.708C231.138 266.203 229.751 269.526 227.862 272.675C225.793 276.135 222.896 278.395 219.171 279.456C216.264 280.276 212.775 279.389 209.646 279.109C209.306 279.076 209.033 278.921 208.828 278.645C207.373 276.654 206.808 273.772 205.927 272.03C198.609 257.468 190.143 247.935 177.699 236.537C164.233 224.195 148.579 216.094 130.739 212.233C130.68 212.221 130.461 212.138 130.082 211.984C129.849 211.888 129.618 211.888 129.388 211.984C129.078 212.115 128.765 212.13 128.448 212.029C125.372 211.059 122.253 210.635 119.09 210.758C117.183 210.827 115.539 210.836 114.159 210.785C112.5 210.725 110.847 210.775 109.199 210.934C106.762 211.166 104.546 211.293 102.551 211.317C99.5463 211.346 96.4389 211.92 93.6618 211.794C87.0086 211.486 80.5332 210.36 74.2358 208.417C70.1198 207.146 65.1976 204.862 59.4693 201.565C47.0818 194.435 34.8672 187.01 22.8255 179.291C19.6255 177.239 15.8606 175.784 12.605 173.602C9.18176 171.31 5.44642 169.45 1.39898 168.022C1.30192 167.989 1.21368 167.935 1.14088 167.863C1.06808 167.79 1.0126 167.702 0.978549 167.605C0.944493 167.507 0.932784 167.403 0.94425 167.3C0.955717 167.197 0.990051 167.098 1.04476 167.009C13.0916 147.445 24.9036 127.674 36.481 107.697C36.9361 106.923 37.8758 106.257 38.3406 105.48C47.2473 90.5527 55.8977 75.4802 64.2918 60.2625C66.6237 56.0349 70.3008 50.8774 75.3231 44.7901C79.8539 39.2901 84.5761 33.963 89.4896 28.8091C90.6193 27.616 91.751 26.1084 92.8847 24.2862Z" fill="#2f4a5c"/>
</svg>