<svg width="18" height="18" viewBox="0 0 18 18" fill="none" xmlns="http://www.w3.org/2000/svg">
  <path d="M0.303758 9.80861C0.00896007 8.05173 -0.138439 7.17329 0.175188 6.39122C0.488815 5.60914 1.20231 5.07594 2.62931 4.00953L5.40652 1.93409C7.13625 0.641441 8.00112 -0.0048835 8.99825 -0.00488281C9.99538 -0.00488213 10.8602 0.641443 12.59 1.93409L15.3672 4.00952C16.7942 5.07594 17.5077 5.60914 17.8213 6.39122C18.1349 7.17329 17.9875 8.05173 17.6927 9.80862L17.1584 12.9928C16.7571 15.3844 16.5565 16.5802 15.7175 17.2901C14.8786 17.9999 13.6661 17.9999 11.2411 17.9999H6.75533C4.33033 17.9999 3.11783 17.9999 2.27891 17.2901C1.44 16.5802 1.23935 15.3844 0.838056 12.9928L0.303758 9.80861Z" fill="white"/>
  <path d="M4.99805 12C4.99805 12 6.7631 13 8.99805 13C11.233 13 12.998 12 12.998 12" stroke="#0E183C" stroke-width="1.5" stroke-linecap="round"/>
</svg>