<svg width="19" height="19" viewBox="0 0 19 19" fill="none" xmlns="http://www.w3.org/2000/svg">
  <path d="M1 10.7188C1.29435 12.7412 2.30701 14.5901 3.85274 15.9271C5.39846 17.2642 7.3739 18 9.41766 18C11.4614 18 13.4369 17.2642 14.9826 15.9271C16.5283 14.5901 17.541 12.7412 17.8353 10.7188M9.41888 1C8.45228 1 7.52528 1.38398 6.8418 2.06746C6.15832 2.75094 5.77434 3.67794 5.77434 4.64453V9.50391C5.77434 10.4705 6.15832 11.3975 6.8418 12.081C7.52528 12.7645 8.45228 13.1485 9.41888 13.1485C10.3855 13.1485 11.3125 12.7645 11.996 12.081C12.6794 11.3975 13.0634 10.4705 13.0634 9.50391V4.64453C13.0634 3.67794 12.6794 2.75094 11.996 2.06746C11.3125 1.38398 10.3855 1 9.41888 1Z" stroke="white" stroke-width="2" stroke-linecap="round" stroke-linejoin="round"/>
</svg>