<svg width="20" height="22" viewBox="0 0 20 22" fill="none" xmlns="http://www.w3.org/2000/svg">
  <path d="M1.02862 13.421C0.825213 14.777 1.73461 15.7181 2.84805 16.1872C7.11677 17.9854 13.0571 17.9854 17.3259 16.1872C18.4393 15.7181 19.3487 14.777 19.1453 13.421C19.0203 12.5877 18.4022 11.8938 17.9442 11.2162C17.3444 10.3177 17.2848 9.3378 17.2847 8.29523C17.2847 4.26619 14.0621 1 10.087 1C6.11177 1 2.88925 4.26619 2.88925 8.29523C2.88916 9.3378 2.82956 10.3177 2.22971 11.2162C1.77176 11.8938 1.15363 12.5877 1.02862 13.421Z" stroke="#2E6FFF" stroke-width="1.5" stroke-linecap="round" stroke-linejoin="round"/>
  <path d="M7.21729 20.0412C7.97881 20.6644 8.98443 21.0434 10.0869 21.0434C11.1893 21.0434 12.1949 20.6644 12.9564 20.0412" stroke="#2E6FFF" stroke-width="1.5" stroke-linecap="round" stroke-linejoin="round"/>
</svg>